<svg xmlns="http://www.w3.org/2000/svg" viewBox="0 0 512 512"><defs><linearGradient id="b" x1="0" y1="0" x2="1" y2="1"><stop offset="0" stop-color="#faf7ef"/><stop offset="1" stop-color="#bdb6a8"/></linearGradient><linearGradient id="o" x1="0" y1="0" x2="0" y2="1"><stop offset="0" stop-color="#ff9f5f"/><stop offset="1" stop-color="#e96d22"/></linearGradient></defs><rect width="512" height="512" rx="110" fill="#111722"/><rect x="42" y="42" width="428" height="428" rx="82" fill="url(#b)"/><circle cx="151" cy="159" r="72" fill="#2b2b28"/><circle cx="151" cy="159" r="52" fill="#111722"/><circle cx="141" cy="149" r="19" fill="#f5f0e4"/><g fill="url(#o)"><rect x="248" y="102" width="86" height="91" rx="18"/><rect x="344" y="102" width="86" height="91" rx="18"/><rect x="248" y="205" width="86" height="91" rx="18"/><rect x="344" y="205" width="86" height="91" rx="18"/><rect x="248" y="308" width="86" height="91" rx="18"/><rect x="344" y="308" width="86" height="91" rx="18"/></g><circle cx="151" cy="350" r="62" fill="#ded7ca" stroke="#aaa294" stroke-width="10"/><circle cx="151" cy="350" r="19" fill="#fff"/></svg>